<?xml version="1.0" standalone="no"?>
<!DOCTYPE svg PUBLIC "-//W3C//DTD SVG 20010904//EN"
 "http://www.w3.org/TR/2001/REC-SVG-20010904/DTD/svg10.dtd">
<svg version="1.0" xmlns="http://www.w3.org/2000/svg"
 width="200.000000pt" height="200.000000pt" viewBox="0 0 200.000000 200.000000"
 preserveAspectRatio="xMidYMid meet">
<metadata>
Created by potrace 1.11, written by Peter Selinger 2001-2013
</metadata>
<g transform="translate(0.000000,200.000000) scale(0.100000,-0.100000)"
fill="#000000" stroke="none">
<path d="M806 1885 c-51 -13 -80 -33 -112 -76 -37 -51 -43 -90 -43 -269 0 -91
0 -175 0 -187 l-1 -23 -195 0 c-154 0 -204 -3 -233 -15 -49 -21 -81 -52 -103
-100 -17 -36 -19 -70 -19 -375 0 -375 3 -391 71 -442 35 -26 97 -51 121 -47 7
1 30 1 50 0 l37 -1 -1 -82 c-1 -139 0 -146 23 -158 27 -15 40 -6 176 129 l113
112 177 0 c197 0 237 7 284 46 59 50 69 88 69 269 0 146 2 162 17 160 9 0 79
-63 156 -139 76 -75 144 -137 151 -137 7 0 21 6 31 14 17 12 19 28 19 137 l1
123 71 1 c114 3 187 49 223 141 9 22 11 131 9 410 -3 403 -2 393 -53 452 -11
13 -38 33 -60 45 -39 20 -54 21 -488 22 -288 0 -464 -3 -491 -10z m936 -94
c16 -6 37 -25 48 -43 19 -31 20 -43 14 -173 -4 -77 -8 -165 -9 -195 -1 -30 -6
-129 -10 -220 -4 -91 -9 -169 -12 -174 -3 -4 0 -12 7 -16 8 -5 2 -14 -20 -30
-27 -19 -45 -22 -130 -24 -66 -1 -104 -6 -112 -14 -8 -8 -14 -44 -15 -95 -1
-45 -2 -86 -2 -91 -1 -5 -47 38 -103 95 l-102 104 -228 1 c-245 1 -274 6 -305
53 -16 24 -18 58 -19 386 -1 402 -1 403 66 434 32 14 90 16 470 15 289 -1 444
-5 462 -13z m-1092 -559 c6 -281 7 -286 67 -346 49 -50 83 -58 253 -61 127 -1
155 -4 154 -16 -1 -11 -69 -274 -91 -349 -3 -13 -34 -15 -192 -15 l-189 -1
-88 -88 -89 -88 -5 75 c-3 42 -10 82 -17 88 -8 8 -43 12 -95 12 -91 0 -125 11
-152 51 -14 22 -16 65 -16 340 0 180 4 326 10 340 5 14 24 35 41 45 29 18 52
19 220 19 104 0 189 -3 189 -6z m1151 -239 c-12 -20 -14 -14 -5 12 4 9 9 14
11 11 3 -2 0 -13 -6 -23z m-685 -498 c-16 -24 -76 -62 -76 -48 0 4 19 27 42
50 43 44 63 43 34 -2z"/>
<path d="M1094 1536 c-79 -34 -101 -136 -51 -232 26 -51 79 -102 185 -178 l52
-38 68 48 c145 104 196 171 196 258 1 63 -18 103 -63 133 -58 39 -147 25 -185
-29 l-16 -22 -16 22 c-34 49 -107 65 -170 38z"/>
</g>
</svg>
